<svg width="34" height="34" viewBox="0 0 34 34" fill="none" xmlns="http://www.w3.org/2000/svg">
<path d="M27.4352 26.3745C27.1424 26.0816 26.6675 26.0816 26.3746 26.3745C26.0817 26.6674 26.0817 27.1423 26.3746 27.4352L27.4352 26.3745ZM32.4697 33.5303C32.7626 33.8232 33.2374 33.8232 33.5303 33.5303C33.8232 33.2374 33.8232 32.7626 33.5303 32.4697L32.4697 33.5303ZM12.1159 6.40598C12.525 6.34119 12.8041 5.95701 12.7393 5.54789C12.6745 5.13878 12.2903 4.85965 11.8812 4.92445L12.1159 6.40598ZM4.92442 11.8812C4.85962 12.2904 5.13875 12.6745 5.54786 12.7393C5.95697 12.8041 6.34116 12.525 6.40595 12.1159L4.92442 11.8812ZM26.3746 27.4352L32.4697 33.5303L33.5303 32.4697L27.4352 26.3745L26.3746 27.4352ZM14.7143 27.6785C7.55432 27.6785 1.75 21.8742 1.75 14.7143H0.25C0.25 22.7027 6.7259 29.1785 14.7143 29.1785V27.6785ZM27.6786 14.7143C27.6786 21.8742 21.8743 27.6785 14.7143 27.6785V29.1785C22.7027 29.1785 29.1786 22.7027 29.1786 14.7143H27.6786ZM14.7143 1.75C21.8743 1.75 27.6786 7.5543 27.6786 14.7143H29.1786C29.1786 6.72587 22.7027 0.25 14.7143 0.25V1.75ZM14.7143 0.25C6.7259 0.25 0.25 6.72587 0.25 14.7143H1.75C1.75 7.5543 7.55432 1.75 14.7143 1.75V0.25ZM11.8812 4.92445C8.30018 5.49163 5.49161 8.30019 4.92442 11.8812L6.40595 12.1159C6.87148 9.17669 9.17667 6.87151 12.1159 6.40598L11.8812 4.92445Z" fill="#2D264B"/>
</svg>
